<?xml version="1.0" encoding="UTF-8" standalone="no" ?>
<!DOCTYPE svg PUBLIC "-//W3C//DTD SVG 1.1//EN" "http://www.w3.org/Graphics/SVG/1.1/DTD/svg11.dtd">
<svg xmlns="http://www.w3.org/2000/svg" xmlns:xlink="http://www.w3.org/1999/xlink" version="1.1" width="1080"
	height="1080" viewBox="0 0 1080 1080" xml:space="preserve">
	<defs>
	</defs>
	<g transform="matrix(1 0 0 1 540 540)" id="5605ace9-f3f7-4e32-97c6-1865171071f0">
	</g>
	<g transform="matrix(1 0 0 1 540 540)" id="49eb014d-bf5f-4b32-af8e-2e99aaf7bd63">
		<rect
			style="stroke: none; stroke-width: 1; stroke-dasharray: none; stroke-linecap: butt; stroke-dashoffset: 0; stroke-linejoin: miter; stroke-miterlimit: 4; fill: rgb(255,255,255); fillRule: nonzero; opacity: 1; visibility: hidden;"
			vector-effect="non-scaling-stroke" x="-540" y="-540" rx="0" ry="0" width="1080" height="1080" />
	</g>
	<g transform="matrix(1.67 0 0 1.67 540 540)">
		<g style="" vector-effect="non-scaling-stroke">
			<g transform="matrix(1.74 0 0 1.74 0.61 0.7)">
				<path
					style="stroke: none; stroke-width: 1; stroke-dasharray: none; stroke-linecap: butt; stroke-dashoffset: 0; stroke-linejoin: miter; stroke-miterlimit: 10; fill: rgb(127,90,240); fillRule: nonzero; opacity: 1;"
					vector-effect="non-scaling-stroke" transform=" translate(-288, -180)"
					d="M 132.115 90 L 288 0 L 443.885 90 L 443.885 270 L 288 360 L 132.115 270 z"
					stroke-linecap="round" />
			</g>
			<g transform="matrix(6.96 0 0 6.96 -0.07 -0.05)">
				<path
					style="stroke: none; stroke-width: 1; stroke-dasharray: none; stroke-linecap: butt; stroke-dashoffset: 0; stroke-linejoin: miter; stroke-miterlimit: 4; fill: rgb(255,255,255); fillRule: nonzero; opacity: 1;"
					vector-effect="non-scaling-stroke" transform=" translate(-31.32, 17.15)"
					d="M 15.7 -34.8 Q 21.35 -34.8 24.58 -32.3 Q 27.8 -29.8 27.8 -25.2 L 27.8 -25.2 L 27.8 -24.6 L 22.9 -24.6 L 22.9 -25.35 Q 22.9 -27.75 20.95 -29.05 Q 19 -30.35 15.8 -30.35 L 15.8 -30.35 Q 12.25 -30.35 10.28 -29.18 Q 8.3 -28 8.3 -25.8 L 8.3 -25.8 Q 8.3 -24.15 9.43 -23.1 Q 10.55 -22.05 12.23 -21.45 Q 13.9 -20.85 16.85 -20.1 L 16.85 -20.1 Q 20.65 -19.1 23 -18.15 Q 25.35 -17.2 27.03 -15.3 Q 28.7 -13.4 28.7 -10.25 L 28.7 -10.25 Q 28.7 -4.65 25.28 -2.08 Q 21.85 0.5 15.65 0.5 L 15.65 0.5 Q 9.45 0.5 6.03 -2.13 Q 2.6 -4.75 2.6 -9.75 L 2.6 -9.75 L 2.65 -10.75 L 7.55 -10.75 L 7.5 -9.7 Q 7.5 -6.8 9.68 -5.38 Q 11.85 -3.95 15.7 -3.95 L 15.7 -3.95 Q 19.45 -3.95 21.63 -5.33 Q 23.8 -6.7 23.8 -9.1 L 23.8 -9.1 Q 23.8 -11 22.63 -12.18 Q 21.45 -13.35 19.68 -14 Q 17.9 -14.65 14.85 -15.45 L 14.85 -15.45 Q 11.1 -16.45 8.85 -17.35 Q 6.6 -18.25 5 -20.13 Q 3.4 -22 3.4 -25.05 L 3.4 -25.05 Q 3.4 -30 6.75 -32.4 Q 10.1 -34.8 15.7 -34.8 L 15.7 -34.8 Z M 47.05 -34.8 Q 52.7 -34.8 55.92 -32.3 Q 59.15 -29.8 59.15 -25.2 L 59.15 -25.2 L 59.15 -24.6 L 54.25 -24.6 L 54.25 -25.35 Q 54.25 -27.75 52.3 -29.05 Q 50.35 -30.35 47.15 -30.35 L 47.15 -30.35 Q 43.6 -30.35 41.62 -29.18 Q 39.65 -28 39.65 -25.8 L 39.65 -25.8 Q 39.65 -24.15 40.77 -23.1 Q 41.9 -22.05 43.57 -21.45 Q 45.25 -20.85 48.2 -20.1 L 48.2 -20.1 Q 52 -19.1 54.35 -18.15 Q 56.7 -17.2 58.37 -15.3 Q 60.05 -13.4 60.05 -10.25 L 60.05 -10.25 Q 60.05 -4.65 56.62 -2.08 Q 53.2 0.5 47 0.5 L 47 0.5 Q 40.8 0.5 37.37 -2.13 Q 33.95 -4.75 33.95 -9.75 L 33.95 -9.75 L 34 -10.75 L 38.9 -10.75 L 38.85 -9.7 Q 38.85 -6.8 41.02 -5.38 Q 43.2 -3.95 47.05 -3.95 L 47.05 -3.95 Q 50.8 -3.95 52.97 -5.33 Q 55.15 -6.7 55.15 -9.1 L 55.15 -9.1 Q 55.15 -11 53.97 -12.18 Q 52.8 -13.35 51.02 -14 Q 49.25 -14.65 46.2 -15.45 L 46.2 -15.45 Q 42.45 -16.45 40.2 -17.35 Q 37.95 -18.25 36.35 -20.13 Q 34.75 -22 34.75 -25.05 L 34.75 -25.05 Q 34.75 -30 38.1 -32.4 Q 41.45 -34.8 47.05 -34.8 L 47.05 -34.8 Z"
					stroke-linecap="round" />
			</g>
			<g transform="matrix(1.74 0 0 1.74 1.12 0.7)">
				<rect
					style="stroke: none; stroke-width: 1; stroke-dasharray: none; stroke-linecap: butt; stroke-dashoffset: 0; stroke-linejoin: miter; stroke-miterlimit: 4; fill: none; fillRule: nonzero; opacity: 1;"
					vector-effect="non-scaling-stroke" x="-288" y="-180" rx="0" ry="0" width="576" height="360" />
			</g>
		</g>
	</g>
</svg>